<svg width="300" height="300" viewBox="0 0 300 300" fill="none" xmlns="http://www.w3.org/2000/svg">
<path opacity="0.15" d="M282.382 206.453C288.327 203.406 295.618 205.754 298.665 211.699C301.713 217.644 299.365 224.934 293.42 227.982L155.519 298.668C152.055 300.444 147.945 300.444 144.481 298.668L6.57952 227.982C0.635138 224.934 -1.7127 217.644 1.3345 211.699C4.38224 205.754 11.6728 203.406 17.6177 206.453L150 274.309L282.382 206.453ZM282.382 138.877C288.328 135.829 295.618 138.181 298.665 144.126C301.712 150.072 299.365 157.363 293.42 160.41L155.519 231.096C152.055 232.872 147.945 232.872 144.481 231.096L6.57952 160.41C0.634685 157.363 -1.71213 150.072 1.3345 144.126C4.3819 138.181 11.6724 135.829 17.6177 138.877L150 206.732L282.382 138.877ZM144.481 1.3318C147.945 -0.443933 152.055 -0.443933 155.519 1.3318L293.42 72.0179C297.458 74.0883 299.998 78.2444 299.998 82.7822C299.998 87.32 297.458 91.4761 293.42 93.5465L155.519 164.233C152.055 166.008 147.945 166.008 144.481 164.233L6.57952 93.5465C2.54172 91.4761 0.00198297 87.32 0.00198273 82.7822C0.00209636 78.2444 2.54167 74.0883 6.57952 72.0179L144.481 1.3318ZM38.6166 82.7822L150 139.874L261.379 82.7822L150 25.6861L38.6166 82.7822Z" fill="#DACA86"/>
</svg>
