<svg width="300" height="300" viewBox="0 0 300 300" fill="none" xmlns="http://www.w3.org/2000/svg">
<path opacity="0.15" d="M174.648 8.69743C186.244 -2.89907 205.045 -2.89921 216.642 8.69743L291.303 83.358C302.899 94.9546 302.899 113.755 291.303 125.352L260.196 156.464C255.096 161.563 248.602 164.416 241.941 165.031L215.163 240.5C210.632 253.268 199.723 262.716 186.437 265.374L14.4674 299.765C10.5412 300.55 6.48071 299.342 3.62272 296.537C0.765611 293.734 -0.517937 289.699 0.192113 285.759L31.5732 111.729C34.1174 97.6205 44.2903 86.0937 57.9738 81.8175L134.997 57.7466C135.671 51.1954 138.516 44.8243 143.536 39.8044L174.648 8.69743ZM65.1894 104.91C60.1065 106.499 56.3294 110.783 55.3843 116.024L30.8502 252.034L80.0932 202.796C69.5496 184.692 72.0242 161.088 87.5356 145.577C106.005 127.107 135.954 127.107 154.423 145.577C172.892 164.046 172.892 193.995 154.423 212.464C138.91 227.977 115.304 230.449 97.199 219.902L48.8964 268.204L181.693 241.648C186.627 240.66 190.68 237.152 192.363 232.41L219.028 157.253C218.75 156.995 218.472 156.735 218.201 156.464L143.536 81.7986C143.189 81.4516 142.851 81.0996 142.525 80.7401L65.1894 104.91ZM137.313 162.687C128.292 153.666 113.667 153.666 104.646 162.687C95.6254 171.708 95.6252 186.333 104.646 195.354C113.667 204.374 128.292 204.374 137.313 195.354C146.334 186.333 146.334 171.708 137.313 162.687ZM199.531 25.8032C197.383 23.6557 193.902 23.6553 191.753 25.8032L160.642 56.9149C158.495 59.0632 158.495 62.5449 160.642 64.6928L235.307 139.358C237.455 141.505 240.937 141.504 243.085 139.358L274.197 108.246C276.345 106.098 276.344 102.617 274.197 100.468L199.531 25.8032Z" fill="#8CC0D8"/>
</svg>
