<svg width="363" height="300" viewBox="0 0 363 300" fill="none" xmlns="http://www.w3.org/2000/svg">
<path opacity="0.15" d="M338.8 54.53C338.8 37.7514 325.232 24.1935 308.55 24.1935H54.45C37.7684 24.1935 24.2 37.7514 24.2 54.53V203.042C24.201 219.819 37.769 233.373 54.45 233.373H308.55C325.231 233.373 338.799 219.819 338.8 203.042V54.53ZM363 203.042C362.999 233.131 338.646 257.567 308.55 257.567H193.6V275.806H245.025C251.708 275.806 257.125 281.222 257.125 287.903C257.125 294.584 251.708 300 245.025 300H117.975C111.292 300 105.875 294.584 105.875 287.903C105.875 281.222 111.292 275.806 117.975 275.806H169.4V257.567H54.45C24.3537 257.567 0.000980751 233.131 0 203.042V54.53C0 24.4398 24.3531 1.56165e-07 54.45 0H308.55C338.647 0 363 24.4398 363 54.53V203.042Z" fill="#B296C9"/>
</svg>
