<svg width="194" height="300" viewBox="0 0 194 300" fill="none" xmlns="http://www.w3.org/2000/svg">
<g opacity="0.15">
<path d="M169.355 253.427C169.355 268.161 159.985 275.805 153.227 275.806H40.321C33.5633 275.805 24.1935 268.161 24.1935 253.427V46.5726C24.1935 31.8392 33.5633 24.1947 40.321 24.1935H153.227C159.985 24.1947 169.355 31.8392 169.355 46.5726V253.427ZM193.548 46.5726C193.548 23.2267 177.646 0.000985288 153.227 -9.53674e-06H40.321C15.9024 0.000989689 0 23.2267 0 46.5726V253.427C0 276.773 15.9024 299.999 40.321 300H153.227C177.646 299.999 193.548 276.773 193.548 253.427V46.5726Z" fill="#96C99B"/>
<path d="M107.713 45.9678C110.386 45.9678 112.552 43.8014 112.552 41.1291C112.552 38.4567 110.386 36.2904 107.713 36.2904H76.1579C73.4855 36.2904 71.3192 38.4567 71.3192 41.1291C71.3192 43.8014 73.4855 45.9678 76.1579 45.9678H107.713ZM121.516 45.9678C124.188 45.9676 126.355 43.8013 126.355 41.1291C126.355 38.4568 124.188 36.2905 121.516 36.2904H120.552C117.88 36.2904 115.713 38.4567 115.713 41.1291C115.713 43.8014 117.88 45.9678 120.552 45.9678H121.516ZM128.226 263.71C130.898 263.71 133.065 261.543 133.065 258.871C133.065 256.199 130.898 254.032 128.226 254.032H55.6454C52.973 254.032 50.8066 256.199 50.8066 258.871C50.8066 261.543 52.973 263.71 55.6454 263.71H128.226Z" fill="#96C99B"/>
</g>
</svg>
