<svg width="80" height="80" viewBox="0 0 80 80" fill="none" xmlns="http://www.w3.org/2000/svg">
<path d="M75.3019 55.0543C76.8873 54.2417 78.8314 54.8677 79.6441 56.453C80.4567 58.0383 79.8306 59.9825 78.2455 60.7952L41.4718 79.6449C40.548 80.1184 39.452 80.1184 38.5282 79.6449L1.75454 60.7952C0.16937 59.9825 -0.45672 58.0383 0.355867 56.453C1.1686 54.8677 3.11274 54.2417 4.69805 55.0543L40 73.1491L75.3019 55.0543ZM75.3019 37.0338C76.8874 36.2211 78.8315 36.8483 79.6441 38.4337C80.4566 40.0191 79.8307 41.9633 78.2455 42.776L41.4718 61.6256C40.548 62.0991 39.452 62.0991 38.5282 61.6256L1.75454 42.776C0.169249 41.9633 -0.456568 40.0191 0.355867 38.4337C1.16851 36.8483 3.11265 36.2211 4.69805 37.0338L40 55.1286L75.3019 37.0338ZM38.5282 0.355146C39.452 -0.118382 40.548 -0.118382 41.4718 0.355146L78.2455 19.2048C79.3222 19.7569 79.9994 20.8652 79.9995 22.0753C79.9995 23.2853 79.3222 24.3936 78.2455 24.9457L41.4718 43.7954C40.548 44.2689 39.452 44.2689 38.5282 43.7954L1.75454 24.9457C0.677792 24.3936 0.000528793 23.2853 0.000528729 22.0753C0.00055903 20.8652 0.677778 19.7569 1.75454 19.2048L38.5282 0.355146ZM10.2978 22.0753L40 37.2996L69.701 22.0753L40 6.84963L10.2978 22.0753Z" fill="#E6CF74"/>
</svg>
