<svg width="80" height="80" viewBox="0 0 80 80" fill="none" xmlns="http://www.w3.org/2000/svg">
<path d="M46.5727 2.31931C49.6652 -0.773086 54.6787 -0.773124 57.7712 2.31931L77.6807 22.2288C80.7731 25.3212 80.7731 30.3348 77.6807 33.4272L69.3855 41.7237C68.0256 43.0836 66.2939 43.8443 64.5177 44.0083L57.3768 64.1332C56.1684 67.5382 53.2594 70.0577 49.7166 70.7663L3.85798 79.9373C2.81098 80.1467 1.72819 79.8245 0.966059 79.0767C0.204163 78.329 -0.138116 77.253 0.05123 76.2024L8.41952 29.7944C9.09797 26.0321 11.8107 22.9583 15.4597 21.818L35.9992 15.3991C36.179 13.6521 36.9376 11.9531 38.2762 10.6145L46.5727 2.31931ZM17.3838 27.9761C16.0284 28.3998 15.0212 29.5422 14.7691 30.9398L8.22673 67.2091L21.3582 54.0789C18.5466 49.2512 19.2064 42.9569 23.3428 38.8204C28.268 33.8953 36.2543 33.8953 41.1795 38.8204C46.1046 43.7456 46.1046 51.7319 41.1795 56.6571C37.0426 60.7939 30.7477 61.4531 25.9197 58.6405L13.039 71.5211L48.4515 64.4394C49.7673 64.176 50.8479 63.2405 51.2968 61.9759L58.4075 41.9341C58.3333 41.8653 58.2592 41.7959 58.187 41.7237L38.2762 21.813C38.1837 21.7204 38.0936 21.6266 38.0066 21.5307L17.3838 27.9761ZM36.6167 43.3833C34.2111 40.9776 30.3113 40.9776 27.9056 43.3833C25.5001 45.7889 25.5001 49.6887 27.9056 52.0943C30.3112 54.4999 34.2111 54.4998 36.6167 52.0943C39.0223 49.6887 39.0223 45.7889 36.6167 43.3833ZM53.2084 6.88085C52.6354 6.3082 51.7071 6.30807 51.1342 6.88085L42.8378 15.1773C42.2654 15.7502 42.2653 16.6786 42.8378 17.2514L62.7485 37.1622C63.3213 37.7347 64.2498 37.7345 64.8227 37.1622L73.1191 28.8657C73.6919 28.2929 73.6918 27.3645 73.1191 26.7916L53.2084 6.88085Z" fill="#8CC0D8"/>
</svg>
