<svg width="97" height="80" viewBox="0 0 97 80" fill="none" xmlns="http://www.w3.org/2000/svg">
<path d="M90.5333 14.5413C90.5333 10.067 86.9076 6.45161 82.45 6.45161H14.55C10.0924 6.45161 6.46667 10.067 6.46667 14.5413V54.1444C6.46693 58.6185 10.0925 62.2329 14.55 62.2329H82.45C86.9074 62.2329 90.5331 58.6185 90.5333 54.1444V14.5413ZM97 54.1444C96.9997 62.1682 90.4923 68.6845 82.45 68.6845H51.7333V73.5484H65.475C67.2607 73.5484 68.7083 74.9926 68.7083 76.7742C68.7083 78.5558 67.2607 80 65.475 80H31.525C29.7393 80 28.2917 78.5558 28.2917 76.7742C28.2917 74.9926 29.7393 73.5484 31.525 73.5484H45.2667V68.6845H14.55C6.50773 68.6845 0.000262074 62.1682 0 54.1444V14.5413C0 6.51727 6.50757 4.16441e-08 14.55 0H82.45C90.4924 0 97 6.51727 97 14.5413V54.1444Z" fill="#B296C9"/>
</svg>
