<svg width="60" height="50" viewBox="0 0 60 50" fill="none" xmlns="http://www.w3.org/2000/svg">
<path d="M47.4936 37.9981V24.9029L32.1371 32.928C30.8127 33.6201 29.1873 33.6201 27.8629 32.928L13.8614 25.6112V38.05C13.8614 38.2311 13.9681 38.5031 14.324 38.7015L27.9246 46.2828C29.2049 46.9964 30.8638 47.0216 32.176 46.3422L46.9971 38.6681C47.3795 38.4701 47.4936 38.1842 47.4936 37.9981ZM56.4572 29.6992V20.2191L50.6515 23.2526V37.9981C50.6515 39.5173 49.7386 40.8101 48.4466 41.4791L33.626 49.1538C31.3781 50.3178 28.5983 50.2794 26.3894 49.0481L12.7889 41.4674C11.5578 40.7812 10.7035 39.518 10.7035 38.05V23.9609L1.51974 19.1622C0.579374 18.6708 7.88334e-05 17.7457 0 16.7239C-1.35763e-06 15.702 0.57931 14.777 1.51974 14.2855L27.8629 0.519083C29.1873 -0.173028 30.8127 -0.173027 32.1371 0.519083L58.4803 14.2855C59.4207 14.777 60 15.702 60 16.7239C60 17.2193 59.8626 17.6913 59.6151 18.1028V29.6992C59.6151 30.5731 58.9082 31.2815 58.0362 31.2815C57.1643 31.2814 56.4572 30.573 56.4572 29.6992ZM30.6772 3.32516C30.2678 3.11118 29.7322 3.11119 29.3228 3.32516L3.68339 16.7232L29.3228 30.1226C29.7322 30.3365 30.2678 30.3365 30.6772 30.1226L56.3166 16.7239L30.6772 3.32516Z" fill="#4E9B8B"/>
</svg>
