<svg width="27" height="26" viewBox="0 0 27 26" fill="none" xmlns="http://www.w3.org/2000/svg">
<path d="M13.5015 1.11728e-06C6.04189 -0.00298259 0 5.97039 0 13.3431C0 19.1733 3.77958 24.1292 9.04324 25.9493C9.7521 26.1253 9.6435 25.627 9.6435 25.2869V22.9745C5.55022 23.4489 5.38431 20.7696 5.10982 20.322C4.5548 19.3851 3.24265 19.1464 3.63479 18.6989C4.56686 18.2245 5.51704 18.8182 6.61803 20.4264C7.41437 21.5931 8.96782 21.3961 9.75511 21.2022C9.92705 20.501 10.2951 19.8745 10.8018 19.3881C6.56072 18.6362 4.7931 16.0762 4.7931 13.0328C4.7931 11.5559 5.28477 10.1983 6.25003 9.10328C5.63468 7.29814 6.30734 5.75258 6.39783 5.52284C8.15037 5.36768 9.97229 6.76406 10.1141 6.87446C11.1095 6.60891 12.2467 6.46867 13.5196 6.46867C14.7986 6.46867 15.9388 6.61487 16.9432 6.88341C17.2841 6.62681 18.9733 5.42736 20.6022 5.57356C20.6896 5.80331 21.3472 7.31306 20.7681 9.09433C21.7454 10.1923 22.2431 11.5619 22.2431 13.0418C22.2431 16.0911 20.4634 18.6541 16.2103 19.3941C16.5746 19.7484 16.8638 20.1711 17.0611 20.6373C17.2585 21.1034 17.3599 21.6039 17.3595 22.1092V25.4659C17.3836 25.7344 17.3595 26 17.812 26C23.1541 24.2187 27 19.227 27 13.3461C27 5.97039 20.9551 1.11728e-06 13.5015 1.11728e-06Z" fill="#282828"/>
</svg>
