<svg width="52" height="80" viewBox="0 0 52 80" fill="none" xmlns="http://www.w3.org/2000/svg">
<path d="M45.5 67.5806C45.5 71.5095 42.9827 73.5481 41.1671 73.5484H10.8329C9.01733 73.5481 6.5 71.5095 6.5 67.5806V12.4194C6.5 8.49046 9.01733 6.45193 10.8329 6.45161H41.1671C42.9827 6.45193 45.5 8.49046 45.5 12.4194V67.5806ZM52 12.4194C52 6.19378 47.7276 0.000267029 41.1671 0H10.8329C4.27244 0.000267029 0 6.19379 0 12.4194V67.5806C0 73.8062 4.27244 79.9997 10.8329 80H41.1671C47.7275 79.9997 52 73.8062 52 67.5806V12.4194Z" fill="#96C99B"/>
<path d="M28.7235 12.2581C29.4361 12.2581 30.0138 11.6804 30.0138 10.9677C30.0138 10.2551 29.4361 9.67741 28.7235 9.67741H20.3087C19.596 9.67741 19.0184 10.2551 19.0183 10.9677C19.0183 11.6804 19.596 12.2581 20.3087 12.2581H28.7235ZM32.4042 12.2581C33.1168 12.258 33.6945 11.6803 33.6945 10.9677C33.6945 10.2551 33.1168 9.67745 32.4042 9.67741H32.1471C31.4345 9.67741 30.8568 10.2551 30.8568 10.9677C30.8568 11.6804 31.4345 12.2581 32.1471 12.2581H32.4042ZM34.1935 70.3226C34.9061 70.3226 35.4838 69.7449 35.4838 69.0322C35.4838 68.3196 34.9061 67.7419 34.1935 67.7419H14.8387C14.126 67.7419 13.5483 68.3196 13.5483 69.0322C13.5483 69.7449 14.126 70.3226 14.8387 70.3226H34.1935Z" fill="#96C99B"/>
</svg>
