<svg width="28" height="28" viewBox="0 0 28 28" fill="none" xmlns="http://www.w3.org/2000/svg">
<path d="M26.6977 23.8138C26.6977 23.8138 24.9995 25.4632 24.5833 25.9468C23.9053 26.6622 23.1066 27 22.0594 27C21.9588 27 21.8514 27 21.7507 26.9934C19.7571 26.8675 17.9045 26.0991 16.515 25.4433C12.7158 23.6283 9.37978 21.0515 6.60757 17.7857C4.31865 15.0632 2.78823 12.546 1.77467 9.84331C1.15042 8.19389 0.922196 6.90879 1.02288 5.69656C1.09001 4.92153 1.39206 4.27898 1.94919 3.72917L4.23811 1.47032C4.56701 1.16561 4.91605 1 5.25838 1C5.68126 1 6.02359 1.25172 6.23839 1.46369C6.2451 1.47032 6.25182 1.47694 6.25853 1.48357C6.66798 1.86115 7.0573 2.25198 7.46675 2.6693C7.67484 2.88127 7.88963 3.09325 8.10443 3.31185L9.93691 5.12026C10.6484 5.82242 10.6484 6.47159 9.93691 7.17376C9.74225 7.36586 9.5543 7.55796 9.35964 7.74344C8.7958 8.31312 9.23873 7.87601 8.65475 8.3927C8.64133 8.40595 8.6279 8.41257 8.62119 8.42582C8.04393 8.9955 8.15133 9.55193 8.27215 9.92951C8.27886 9.94938 8.28557 9.96926 8.29229 9.98913C8.76886 11.1285 9.4401 12.2016 10.4604 13.4801L10.4671 13.4867C12.3197 15.7389 14.273 17.4944 16.4277 18.8391C16.7029 19.0113 16.9848 19.1504 17.2533 19.2829C17.4949 19.4021 17.7232 19.5147 17.9178 19.634C17.9447 19.6472 17.9715 19.6671 17.9984 19.6803C18.2266 19.7929 18.4414 19.8459 18.6629 19.8459C19.22 19.8459 19.5691 19.5015 19.6832 19.3889L20.9989 18.0904C21.2271 17.8652 21.5896 17.5936 22.0125 17.5936C22.4286 17.5936 22.771 17.852 22.979 18.0772C22.9857 18.0838 22.9857 18.0838 22.9925 18.0904L26.691 21.7404C27.3823 22.4161 26.6977 23.8138 26.6977 23.8138Z" stroke="#282828" stroke-width="2" stroke-linecap="round" stroke-linejoin="round"/>
</svg>
