<svg width="60" height="49" viewBox="0 0 60 49" fill="none" xmlns="http://www.w3.org/2000/svg">
<path d="M56 43.8239C56 41.4607 55.4968 39.5799 54.5762 38.0562C53.6534 36.5291 52.2247 35.2181 50.1562 34.1416C45.9402 31.9475 39.3321 30.8622 30 30.8622C20.6679 30.8622 14.0599 31.9474 9.84375 34.1416C7.77529 35.2181 6.3466 36.5291 5.42383 38.0562C4.50318 39.5799 4 41.4607 4 43.8239C4.00019 44.4544 4.45333 44.8295 4.85449 44.8298H55.1455C55.5467 44.8295 55.9998 44.4544 56 43.8239ZM38.5 12.3182C38.5 7.94854 34.8236 4.17021 30 4.17021C25.1764 4.17024 21.5 7.94856 21.5 12.3182C21.5001 16.6878 25.1765 20.4662 30 20.4662C34.8235 20.4662 38.4999 16.6878 38.5 12.3182ZM60 43.8239C59.9998 46.6073 57.8973 48.9998 55.1455 49H4.85449C2.10274 48.9998 0.000203004 46.6073 0 43.8239C0 40.8211 0.647204 38.1373 2.03906 35.8337C3.4288 33.5336 5.4752 31.7537 8.05664 30.4102C13.1406 27.7643 20.5324 26.692 30 26.692C39.4676 26.692 46.8595 27.7643 51.9434 30.4102C54.5248 31.7537 56.5712 33.5336 57.9609 35.8337C59.3528 38.1373 60 40.8211 60 43.8239ZM42.5 12.3182C42.4999 19.2514 36.7743 24.6364 30 24.6364C23.2257 24.6364 17.5001 19.2514 17.5 12.3182C17.5 5.38497 23.2257 2.55335e-05 30 0C36.7744 0 42.5 5.38495 42.5 12.3182Z" fill="#479DC5"/>
</svg>
