<svg width="80" height="48" viewBox="0 0 80 48" fill="none" xmlns="http://www.w3.org/2000/svg">
<path d="M42.0562 2.03286C42.3566 0.65246 43.7686 -0.233372 45.2104 0.054167C46.6522 0.341751 47.5774 1.69367 47.2771 3.07407L37.9438 45.9671C37.6434 47.3475 36.2314 48.2334 34.7896 47.9458C33.3478 47.6582 32.4226 46.3063 32.7229 44.9259L42.0562 2.03286ZM14.7709 9.78808C15.8068 8.78581 17.4959 8.7773 18.5428 9.76913C19.5892 10.7609 19.5982 12.3773 18.5625 13.3795L6.41778 25.128L18.5625 36.8785C19.598 37.8808 19.5893 39.4971 18.5428 40.4888C17.4959 41.4807 15.8068 41.4721 14.7709 40.4699L0.770918 26.9242C-0.256872 25.9293 -0.257074 24.3275 0.770918 23.3328L14.7709 9.78808ZM61.4572 9.76913C62.5041 8.7773 64.1932 8.78581 65.2291 9.78808L79.2291 23.3328C80.2571 24.3275 80.2569 25.9293 79.2291 26.9242L65.2291 40.4699C64.1932 41.4721 62.5041 41.4807 61.4572 40.4888C60.4107 39.4971 60.402 37.8808 61.4375 36.8785L73.5812 25.128L61.4375 13.3795C60.4018 12.3773 60.4108 10.7609 61.4572 9.76913Z" fill="#EB692C"/>
</svg>
