<svg width="26" height="22" viewBox="0 0 26 22" fill="none" xmlns="http://www.w3.org/2000/svg">
<path d="M23.7834 0.194222C23.7834 0.194222 26.1886 -0.758063 25.9881 1.55463C25.9213 2.50693 25.3201 5.83993 24.8524 9.44503L23.2489 20.1243C23.2489 20.1243 23.1153 21.6887 21.9127 21.9608C20.7101 22.2329 18.9062 21.0085 18.5721 20.7364C18.3049 20.5324 13.5614 17.4714 11.891 15.975C11.4234 15.5669 10.8889 14.7506 11.9578 13.7983L18.973 6.99631C19.7747 6.18005 20.5765 4.27548 17.2359 6.58818L7.8824 13.0501C7.8824 13.0501 6.81343 13.7303 4.80914 13.1182L0.466404 11.7577C0.466404 11.7577 -1.13706 10.7374 1.60219 9.71708C8.2833 6.5201 16.501 3.25512 23.7834 0.194222Z" fill="#282828"/>
</svg>
